<svg xmlns="http://www.w3.org/2000/svg" width="180" height="180" viewBox="0 0 180 180" version="1.1">
	<path d="M 120.493 12.351 C 108.561 17.908, 102 31.759, 102 51.394 C 102 59.849, 101.790 61.009, 100.250 61.071 C 99.287 61.110, 95.125 61.468, 91 61.867 C 83.542 62.587, 83.373 62.669, 60.832 76.541 C 43.566 87.166, 38.411 90.791, 39.204 91.746 C 39.776 92.436, 40.977 92.993, 41.872 92.985 C 43.124 92.973, 43.197 92.777, 42.188 92.138 C 41.400 91.638, 44.343 91.061, 49.565 90.693 C 58.223 90.082, 62.701 91.089, 64.537 94.059 C 65.771 96.057, 63.991 96.368, 62.435 94.427 C 60.967 92.596, 60.946 92.617, 62.022 94.828 C 62.681 96.183, 63.732 96.933, 64.540 96.623 C 65.320 96.324, 66.808 97.274, 67.941 98.796 C 69.050 100.283, 70.574 102.175, 71.330 103 C 73.782 105.678, 84 119.873, 84 120.602 C 84 120.991, 83.145 120.536, 82.099 119.590 C 81.036 118.628, 79.941 118.287, 79.613 118.817 C 78.741 120.228, 48.882 140.216, 48.387 139.720 C 48.152 139.485, 48.082 129.551, 48.230 117.643 L 48.500 95.992 64.500 106.646 L 80.500 117.300 75.203 111.660 C 72.290 108.559, 69.260 104.472, 68.469 102.579 C 67.044 99.170, 65 96.977, 65 98.858 C 65 99.394, 65.563 100.034, 66.250 100.280 C 66.938 100.525, 67.199 101.051, 66.831 101.448 C 66.464 101.846, 62.864 99.953, 58.831 97.243 C 52.546 93.019, 50.965 92.380, 47.750 92.767 L 44 93.219 44.021 119.859 L 44.043 146.500 54.771 152.606 C 60.672 155.964, 69.864 161.252, 75.197 164.356 C 80.530 167.460, 85.255 169.993, 85.697 169.985 C 86.139 169.977, 95.725 164.634, 107 158.112 C 121.557 149.692, 127.542 145.710, 127.644 144.377 C 127.723 143.345, 127.835 131.214, 127.894 117.419 L 128 92.338 130.523 90.988 C 131.911 90.245, 132.923 89.287, 132.773 88.859 C 132.623 88.431, 126.742 82.001, 119.704 74.571 L 106.907 61.061 107.204 54.280 L 107.500 47.500 113.640 46.823 C 128.760 45.155, 140.603 33.031, 142.581 17.195 C 143.425 10.442, 142.878 10.032, 133 10.025 C 127.234 10.021, 124.342 10.559, 120.493 12.351 M 122.459 16.880 C 115.758 19.923, 111.313 26.210, 108.649 36.411 L 107.120 42.267 112.882 41.744 C 125.276 40.621, 134.672 31.645, 137.478 18.250 L 138.159 15 132.329 15.022 C 128.852 15.035, 124.870 15.785, 122.459 16.880 M 119.964 98.383 C 119.159 99.143, 114.675 102.368, 110 105.548 C 105.325 108.729, 99.133 113.074, 96.240 115.204 L 90.980 119.078 105.740 128.842 C 113.858 134.213, 121.063 138.947, 121.750 139.363 C 122.735 139.958, 123 135.543, 123 118.559 C 123 106.702, 122.646 97, 122.214 97 C 121.782 97, 120.770 97.622, 119.964 98.383 M 66.671 133.685 C 58.035 139.562, 51.315 144.713, 51.735 145.133 C 52.978 146.371, 82.233 163.100, 82.569 162.764 C 83.143 162.190, 83.504 122.998, 82.935 122.999 C 82.625 122.999, 75.306 127.808, 66.671 133.685 M 88 142.974 C 88 153.988, 88.338 162.981, 88.750 162.957 C 90.411 162.861, 119.325 145.432, 119.308 144.537 C 119.289 143.617, 96.503 127.589, 90.750 124.449 L 88 122.949 88 142.974" stroke="none" fill="black" fill-rule="evenodd"/>
</svg>